<?xml version="1.0" encoding="utf-8"?>
<!-- Generator: Adobe Illustrator 21.0.0, SVG Export Plug-In . SVG Version: 6.00 Build 0)  -->
<svg version="1.1" id="Layer_1" xmlns="http://www.w3.org/2000/svg" xmlns:xlink="http://www.w3.org/1999/xlink" x="0px" y="0px"
	 viewBox="0 0 259 163" style="enable-background:new 0 0 259 163;" xml:space="preserve">
<style type="text/css">
	.st0{fill:#FFFFFF;filter:url(#Adobe_OpacityMaskFilter);}
	.st1{mask:url(#mask0_0_1);}
	.st2{fill:none;}
	.st3{fill:#FFFFFF;filter:url(#Adobe_OpacityMaskFilter_1_);}
	.st4{mask:url(#mask1_0_1);}
	.st5{fill:#F1EFE9;}
	.st6{fill:#DBCCAF;}
</style>
<defs>
	<filter id="Adobe_OpacityMaskFilter" filterUnits="userSpaceOnUse" x="0" y="-0.3" width="363.9" height="120">
		<feColorMatrix  type="matrix" values="1 0 0 0 0  0 1 0 0 0  0 0 1 0 0  0 0 0 1 0"/>
	</filter>
</defs>
<mask maskUnits="userSpaceOnUse" x="0" y="-0.3" width="363.9" height="120" id="mask0_0_1">
	<path class="st0" d="M0,0h110v119.6H0V0z"/>
</mask>
<g class="st1">
	<rect x="0" y="-0.3" class="st2" width="363.9" height="120"/>
</g>
<defs>
	<filter id="Adobe_OpacityMaskFilter_1_" filterUnits="userSpaceOnUse" x="0" y="-0.3" width="347.9" height="115">
		<feColorMatrix  type="matrix" values="1 0 0 0 0  0 1 0 0 0  0 0 1 0 0  0 0 0 1 0"/>
	</filter>
</defs>
<mask maskUnits="userSpaceOnUse" x="0" y="-0.3" width="347.9" height="115" id="mask1_0_1">
	<path class="st3" d="M0,0h105v114.6H0V0z"/>
</mask>
<g class="st4">
	<rect x="0" y="-0.3" class="st2" width="347.9" height="115"/>
</g>
<path d="M119.7,46.1V21.9h9.6c1.8,0,3.4,0.4,4.7,1.1c1.3,0.7,2.3,1.7,3,2.9c0.7,1.2,1,2.6,1,4.3c0,1.6-0.3,3-1,4.3
	c-0.7,1.2-1.7,2.2-3,2.9c-1.3,0.7-2.9,1-4.8,1h-4.3v7.9H119.7z M124.9,34.2h3.5c1.5,0,2.5-0.4,3.3-1.1c0.7-0.8,1.1-1.7,1.1-2.9
	c0-1.2-0.4-2.2-1.1-2.9c-0.7-0.7-1.8-1.1-3.3-1.1h-3.5V34.2z"/>
<path d="M141.2,46.1V28h4.9v3.2h0.2c0.3-1.1,0.9-2,1.7-2.6c0.8-0.6,1.7-0.9,2.7-0.9c0.5,0,0.9,0.1,1.4,0.2c0.4,0.1,0.8,0.3,1.1,0.5
	l-1.5,4.2c-0.2-0.1-0.5-0.2-0.8-0.3c-0.3-0.1-0.6-0.1-0.9-0.1c-1,0-1.9,0.3-2.6,1c-0.7,0.7-1.1,1.6-1.1,2.7v10.3H141.2z"/>
<path d="M163.7,46.5c-1.8,0-3.4-0.4-4.8-1.2c-1.3-0.8-2.4-1.9-3.1-3.3c-0.7-1.4-1.1-3.1-1.1-4.9c0-1.9,0.4-3.5,1.1-4.9
	c0.7-1.4,1.8-2.5,3.1-3.3c1.3-0.8,2.9-1.2,4.8-1.2c1.8,0,3.4,0.4,4.8,1.2c1.3,0.8,2.4,1.9,3.1,3.3c0.7,1.4,1.1,3,1.1,4.9
	c0,1.9-0.4,3.5-1.1,4.9c-0.7,1.4-1.8,2.5-3.1,3.3C167.2,46.1,165.6,46.5,163.7,46.5z M163.8,42.6c1.2,0,2.2-0.5,2.8-1.6
	c0.7-1,1-2.4,1-3.9c0-1.6-0.3-2.9-1-4c-0.6-1-1.6-1.6-2.8-1.6c-1.3,0-2.2,0.5-2.9,1.6c-0.6,1-1,2.4-1,4c0,1.6,0.3,2.9,1,3.9
	C161.5,42.1,162.5,42.6,163.8,42.6z"/>
<path d="M176,46.1V28h4.8v3.2h0.2c0.4-1.1,1-1.9,1.9-2.5c0.9-0.6,1.9-0.9,3.2-0.9c1.3,0,2.3,0.3,3.2,0.9s1.5,1.5,1.8,2.5h0.2
	c0.4-1,1-1.9,2-2.5c1-0.6,2.1-1,3.5-1c1.7,0,3.1,0.5,4.1,1.6c1.1,1.1,1.6,2.6,1.6,4.6v12.2h-5V34.9c0-1-0.3-1.8-0.8-2.3
	c-0.5-0.5-1.2-0.8-2-0.8c-0.9,0-1.6,0.3-2.1,0.9c-0.5,0.6-0.8,1.3-0.8,2.3v11.1h-4.9V34.8c0-0.9-0.3-1.6-0.8-2.1
	c-0.5-0.5-1.2-0.8-2-0.8c-0.8,0-1.5,0.3-2.1,0.9c-0.6,0.6-0.9,1.4-0.9,2.4v10.9H176z"/>
<path d="M206.4,53V28h5v3h0.2c0.2-0.5,0.5-1,1-1.5c0.4-0.5,1-0.9,1.6-1.3c0.7-0.3,1.5-0.5,2.6-0.5c1.3,0,2.6,0.3,3.7,1
	c1.1,0.7,2,1.7,2.7,3.1c0.7,1.4,1,3.1,1,5.2c0,2-0.3,3.7-1,5.1c-0.7,1.4-1.5,2.4-2.6,3.2c-1.1,0.7-2.4,1.1-3.8,1.1
	c-1,0-1.8-0.2-2.5-0.5c-0.7-0.3-1.2-0.7-1.7-1.2c-0.4-0.5-0.8-1-1-1.5h-0.2V53H206.4z M211.3,37.1c0,1.6,0.3,2.9,1,3.9
	c0.7,1,1.6,1.5,2.8,1.5c1.2,0,2.2-0.5,2.8-1.5c0.7-1,1-2.3,1-3.9c0-1.6-0.3-2.9-1-3.8c-0.7-1-1.6-1.5-2.8-1.5
	c-1.2,0-2.2,0.5-2.8,1.4C211.6,34.1,211.3,35.4,211.3,37.1z"/>
<path d="M237.1,28v3.8h-3.4v8.8c0,0.7,0.2,1.2,0.5,1.4c0.3,0.2,0.7,0.4,1.2,0.4c0.2,0,0.5,0,0.7-0.1c0.2,0,0.4-0.1,0.5-0.1l0.8,3.8
	c-0.3,0.1-0.6,0.2-1.1,0.3c-0.5,0.1-1,0.2-1.7,0.2c-1.8,0.1-3.3-0.3-4.4-1.2c-1.1-0.9-1.6-2.2-1.6-4v-9.5h-2.5V28h2.5v-4.4h5V28
	H237.1z"/>
<path d="M255.5,33.2l-4.6,0.3c-0.1-0.6-0.4-1.1-1-1.5c-0.5-0.4-1.2-0.6-2.1-0.6c-0.8,0-1.4,0.2-2,0.5c-0.5,0.3-0.8,0.8-0.8,1.3
	c0,0.4,0.2,0.8,0.5,1.1c0.3,0.3,0.9,0.6,1.8,0.7l3.3,0.6c3.5,0.7,5.3,2.4,5.3,4.9c0,1.2-0.3,2.2-1,3.1c-0.7,0.9-1.7,1.6-2.9,2.1
	c-1.2,0.5-2.6,0.8-4.2,0.8c-2.4,0-4.3-0.5-5.8-1.5c-1.4-1-2.3-2.4-2.5-4.1l5-0.3c0.2,0.7,0.5,1.3,1.1,1.7c0.6,0.4,1.3,0.6,2.2,0.6
	c0.9,0,1.6-0.2,2.1-0.5c0.5-0.3,0.8-0.8,0.8-1.3c0-0.9-0.8-1.5-2.3-1.8l-3.1-0.6c-3.5-0.7-5.3-2.4-5.3-5.2c0-1.8,0.7-3.1,2.1-4.1
	c1.4-1,3.3-1.5,5.6-1.5c2.3,0,4.1,0.5,5.4,1.5C254.5,30.2,255.3,31.5,255.5,33.2z"/>
<path d="M129.6,72.4v3.8H126v14.4h-5V76.2h-2.6v-3.8h2.6v-1.3c0-2,0.6-3.5,1.7-4.4c1.1-1,2.6-1.5,4.3-1.5c0.8,0,1.5,0.1,2.1,0.2
	c0.7,0.1,1.1,0.2,1.5,0.3l-0.9,3.8c-0.2-0.1-0.4-0.1-0.7-0.2c-0.3-0.1-0.6-0.1-0.9-0.1c-0.7,0-1.3,0.2-1.5,0.5
	c-0.3,0.3-0.4,0.8-0.4,1.4v1.2H129.6z"/>
<path d="M140.9,90.9c-1.8,0-3.4-0.4-4.8-1.2c-1.3-0.8-2.4-1.9-3.1-3.3c-0.7-1.4-1.1-3.1-1.1-4.9c0-1.9,0.4-3.5,1.1-4.9
	c0.7-1.4,1.8-2.5,3.1-3.3c1.3-0.8,2.9-1.2,4.8-1.2c1.8,0,3.4,0.4,4.8,1.2c1.3,0.8,2.4,1.9,3.1,3.3c0.7,1.4,1.1,3,1.1,4.9
	c0,1.9-0.4,3.5-1.1,4.9c-0.7,1.4-1.8,2.5-3.1,3.3C144.3,90.5,142.7,90.9,140.9,90.9z M140.9,87c1.2,0,2.2-0.5,2.8-1.6
	c0.7-1,1-2.4,1-3.9c0-1.6-0.3-2.9-1-4c-0.6-1-1.6-1.6-2.8-1.6c-1.3,0-2.2,0.5-2.9,1.6c-0.6,1-1,2.4-1,4c0,1.6,0.3,2.9,1,3.9
	C138.7,86.5,139.6,87,140.9,87z"/>
<path d="M153.1,90.6V72.4h4.9v3.2h0.2c0.3-1.1,0.9-2,1.7-2.6c0.8-0.6,1.7-0.9,2.7-0.9c0.5,0,0.9,0.1,1.4,0.2
	c0.4,0.1,0.8,0.3,1.1,0.5l-1.5,4.2c-0.2-0.1-0.5-0.2-0.8-0.3c-0.3-0.1-0.6-0.1-0.9-0.1c-1,0-1.9,0.3-2.6,1c-0.7,0.7-1.1,1.6-1.1,2.7
	v10.3H153.1z"/>
<path d="M191.3,74.2c-0.3-1.1-0.9-2-1.8-2.7c-0.9-0.6-2-1-3.3-1c-1.9,0-3.4,0.7-4.5,2.1c-1.1,1.4-1.7,3.3-1.7,5.8
	c0,2.5,0.6,4.5,1.7,5.9s2.7,2.1,4.6,2.1c1.7,0,3-0.4,4-1.3c1-0.9,1.5-2.1,1.5-3.6h-5.2v-3.9h10.1v3c0,2.1-0.5,4-1.4,5.5
	c-0.9,1.5-2.1,2.7-3.7,3.5c-1.6,0.8-3.4,1.2-5.4,1.2c-2.3,0-4.3-0.5-6-1.5c-1.7-1-3-2.4-4-4.3c-1-1.9-1.4-4.1-1.4-6.6
	c0-2.6,0.5-4.9,1.5-6.7c1-1.9,2.4-3.3,4.1-4.3c1.7-1,3.6-1.5,5.8-1.5c1.8,0,3.5,0.3,5,1c1.5,0.7,2.7,1.7,3.6,2.9
	c0.9,1.2,1.5,2.6,1.8,4.2H191.3z"/>
<path d="M208.7,90.9c-1.8,0-3.4-0.4-4.8-1.2c-1.3-0.8-2.4-1.9-3.1-3.3c-0.7-1.4-1.1-3.1-1.1-4.9c0-1.9,0.4-3.5,1.1-4.9
	c0.7-1.4,1.8-2.5,3.1-3.3c1.3-0.8,2.9-1.2,4.8-1.2c1.8,0,3.4,0.4,4.8,1.2c1.3,0.8,2.4,1.9,3.1,3.3c0.7,1.4,1.1,3,1.1,4.9
	c0,1.9-0.4,3.5-1.1,4.9c-0.7,1.4-1.8,2.5-3.1,3.3C212.1,90.5,210.5,90.9,208.7,90.9z M208.7,87c1.2,0,2.2-0.5,2.8-1.6
	c0.7-1,1-2.4,1-3.9c0-1.6-0.3-2.9-1-4c-0.6-1-1.6-1.6-2.8-1.6c-1.3,0-2.2,0.5-2.9,1.6c-0.6,1-1,2.4-1,4c0,1.6,0.3,2.9,1,3.9
	C206.5,86.5,207.4,87,208.7,87z"/>
<path d="M229.1,90.9c-1.8,0-3.4-0.4-4.8-1.2c-1.3-0.8-2.4-1.9-3.1-3.3c-0.7-1.4-1.1-3.1-1.1-4.9c0-1.9,0.4-3.5,1.1-4.9
	c0.7-1.4,1.8-2.5,3.1-3.3c1.3-0.8,2.9-1.2,4.8-1.2c1.8,0,3.4,0.4,4.8,1.2c1.3,0.8,2.4,1.9,3.1,3.3c0.7,1.4,1.1,3,1.1,4.9
	c0,1.9-0.4,3.5-1.1,4.9c-0.7,1.4-1.8,2.5-3.1,3.3C232.5,90.5,231,90.9,229.1,90.9z M229.1,87c1.2,0,2.2-0.5,2.8-1.6
	c0.7-1,1-2.4,1-3.9c0-1.6-0.3-2.9-1-4c-0.6-1-1.6-1.6-2.8-1.6c-1.3,0-2.2,0.5-2.9,1.6c-0.6,1-1,2.4-1,4c0,1.6,0.3,2.9,1,3.9
	C226.9,86.5,227.9,87,229.1,87z"/>
<path d="M248.1,90.9c-1.4,0-2.6-0.4-3.8-1.1c-1.1-0.7-2-1.8-2.6-3.2c-0.7-1.4-1-3.1-1-5.1c0-2.1,0.3-3.8,1-5.2
	c0.7-1.4,1.6-2.4,2.7-3.1c1.1-0.7,2.3-1,3.7-1c1,0,1.9,0.2,2.6,0.5c0.7,0.3,1.2,0.8,1.6,1.3c0.4,0.5,0.8,1,1,1.5h0.2v-9.1h5v24.2h-5
	v-2.9h-0.2c-0.2,0.5-0.6,1-1,1.5c-0.4,0.5-1,0.9-1.7,1.2C249.9,90.7,249,90.9,248.1,90.9z M249.7,86.9c1.2,0,2.1-0.5,2.8-1.5
	c0.7-1,1-2.3,1-3.9c0-1.6-0.3-2.9-1-3.9c-0.7-1-1.6-1.4-2.8-1.4c-1.3,0-2.2,0.5-2.9,1.5c-0.7,1-1,2.3-1,3.8c0,1.6,0.3,2.9,1,3.9
	C247.5,86.4,248.4,86.9,249.7,86.9z"/>
<path d="M20.5,118.5h1.7v9.4c0,1.1-0.3,2-0.8,2.7c-0.5,0.8-1.2,1.3-2,1.7c-0.8,0.4-1.8,0.6-2.8,0.6s-1.9-0.2-2.8-0.6
	c-0.8-0.4-1.5-1-2-1.7c-0.5-0.8-0.8-1.7-0.8-2.7v-9.4H13v9.4c0,0.7,0.2,1.4,0.5,1.9c0.3,0.5,0.8,0.9,1.4,1.2
	c0.6,0.3,1.2,0.4,1.9,0.4c0.7,0,1.3-0.1,1.9-0.4c0.6-0.3,1-0.7,1.4-1.2c0.3-0.5,0.5-1.1,0.5-1.9V118.5z"/>
<path d="M27.1,126.3v6.4h-1.6V122h1.6v1.7h0.1c0.3-0.5,0.6-1,1.1-1.3c0.5-0.3,1.2-0.5,2-0.5c1.1,0,1.9,0.3,2.6,1c0.7,0.7,1,1.7,1,3
	v6.8h-1.6V126c0-0.8-0.2-1.5-0.7-2c-0.4-0.5-1-0.7-1.8-0.7c-0.8,0-1.4,0.3-2,0.8C27.3,124.7,27.1,125.4,27.1,126.3z"/>
<path d="M41.3,132.9c-1,0-1.9-0.2-2.7-0.7c-0.7-0.5-1.3-1.1-1.7-1.9c-0.4-0.8-0.6-1.8-0.6-2.9c0-1.1,0.2-2.1,0.6-2.9
	c0.4-0.8,1-1.5,1.7-1.9c0.7-0.5,1.6-0.7,2.5-0.7c0.6,0,1.1,0.1,1.6,0.3c0.5,0.2,1,0.5,1.5,0.9c0.4,0.4,0.8,1,1.1,1.6
	c0.3,0.7,0.4,1.5,0.4,2.5v0.7H38c0,1.1,0.3,2,1,2.6c0.6,0.6,1.4,0.9,2.4,0.9c0.6,0,1.2-0.1,1.6-0.4c0.5-0.3,0.8-0.7,1-1.3l1.6,0.5
	c-0.3,0.8-0.8,1.5-1.5,2C43.3,132.7,42.4,132.9,41.3,132.9z M38,126.5h6c0-0.9-0.3-1.7-0.8-2.3c-0.5-0.6-1.2-0.9-2.1-0.9
	c-0.6,0-1.2,0.1-1.6,0.4c-0.5,0.3-0.8,0.7-1.1,1.2C38.2,125.5,38,126,38,126.5z"/>
<path d="M53.7,132.7V122h1.6v10.6H53.7z M54.5,120.3c-0.3,0-0.6-0.1-0.8-0.3c-0.2-0.2-0.3-0.5-0.3-0.8c0-0.3,0.1-0.6,0.3-0.8
	c0.2-0.2,0.5-0.3,0.8-0.3c0.3,0,0.6,0.1,0.8,0.3c0.2,0.2,0.4,0.5,0.4,0.8c0,0.3-0.1,0.6-0.4,0.8C55.1,120.2,54.9,120.3,54.5,120.3z"
	/>
<path d="M60,126.3v6.4h-1.6V122h1.6v1.7H60c0.3-0.5,0.6-1,1.1-1.3c0.5-0.3,1.2-0.5,2-0.5c1.1,0,1.9,0.3,2.6,1c0.7,0.7,1,1.7,1,3v6.8
	h-1.6V126c0-0.8-0.2-1.5-0.7-2c-0.4-0.5-1-0.7-1.8-0.7c-0.8,0-1.4,0.3-2,0.8C60.2,124.7,60,125.4,60,126.3z"/>
<path d="M69.7,132.7V122h1.6v10.6H69.7z M70.6,120.3c-0.3,0-0.6-0.1-0.8-0.3c-0.2-0.2-0.3-0.5-0.3-0.8c0-0.3,0.1-0.6,0.3-0.8
	c0.2-0.2,0.5-0.3,0.8-0.3c0.3,0,0.6,0.1,0.8,0.3c0.2,0.2,0.4,0.5,0.4,0.8c0,0.3-0.1,0.6-0.4,0.8C71.2,120.2,70.9,120.3,70.6,120.3z"
	/>
<path d="M79,122v1.4h-2.3v6.2c0,0.5,0.1,0.8,0.2,1c0.1,0.2,0.3,0.4,0.5,0.5c0.2,0.1,0.5,0.1,0.7,0.1c0.2,0,0.3,0,0.4,0
	c0.1,0,0.2,0,0.3-0.1l0.3,1.5c-0.1,0-0.3,0.1-0.5,0.1c-0.2,0.1-0.4,0.1-0.8,0.1c-0.5,0-0.9-0.1-1.4-0.3c-0.4-0.2-0.8-0.5-1.1-0.9
	c-0.3-0.4-0.4-0.9-0.4-1.5v-6.6h-1.6V122h1.6v-2.5h1.6v2.5H79z"/>
<path d="M81.4,132.7V122h1.6v10.6H81.4z M82.3,120.3c-0.3,0-0.6-0.1-0.8-0.3c-0.2-0.2-0.3-0.5-0.3-0.8c0-0.3,0.1-0.6,0.3-0.8
	c0.2-0.2,0.5-0.3,0.8-0.3c0.3,0,0.6,0.1,0.8,0.3c0.2,0.2,0.4,0.5,0.4,0.8c0,0.3-0.1,0.6-0.4,0.8C82.9,120.2,82.6,120.3,82.3,120.3z"
	/>
<path d="M89.2,132.9c-0.7,0-1.3-0.1-1.8-0.4c-0.6-0.3-1-0.6-1.3-1.1c-0.3-0.5-0.5-1.1-0.5-1.8c0-0.6,0.1-1.1,0.4-1.5
	c0.2-0.4,0.6-0.7,1-0.9c0.4-0.2,0.8-0.4,1.3-0.5c0.5-0.1,1-0.2,1.5-0.3c0.6-0.1,1.2-0.1,1.6-0.2c0.4,0,0.7-0.1,0.9-0.2
	c0.2-0.1,0.3-0.3,0.3-0.6v0c0-0.7-0.2-1.2-0.6-1.6s-0.9-0.6-1.7-0.6c-0.8,0-1.4,0.2-1.8,0.5c-0.4,0.3-0.8,0.7-0.9,1.1l-1.6-0.6
	c0.3-0.6,0.6-1.1,1.1-1.5c0.5-0.4,1-0.6,1.5-0.8c0.6-0.2,1.1-0.2,1.6-0.2c0.3,0,0.7,0,1.2,0.1c0.4,0.1,0.9,0.2,1.3,0.5
	c0.4,0.3,0.8,0.6,1,1.1c0.3,0.5,0.4,1.2,0.4,2v7h-1.6v-1.4h-0.1c-0.1,0.2-0.3,0.5-0.6,0.7c-0.3,0.3-0.6,0.5-1,0.7
	C90.3,132.8,89.8,132.9,89.2,132.9z M89.4,131.5c0.7,0,1.2-0.1,1.6-0.4c0.4-0.3,0.8-0.6,1-1c0.2-0.4,0.4-0.8,0.4-1.3v-1.5
	c-0.1,0.1-0.2,0.2-0.5,0.2c-0.2,0.1-0.5,0.1-0.8,0.2c-0.3,0-0.6,0.1-0.9,0.1c-0.3,0-0.5,0.1-0.7,0.1c-0.4,0.1-0.8,0.1-1.2,0.3
	c-0.4,0.1-0.7,0.3-0.9,0.5c-0.2,0.2-0.3,0.6-0.3,1c0,0.6,0.2,1,0.6,1.3C88.3,131.3,88.8,131.5,89.4,131.5z"/>
<path d="M101.7,122v1.4h-2.3v6.2c0,0.5,0.1,0.8,0.2,1c0.1,0.2,0.3,0.4,0.5,0.5c0.2,0.1,0.5,0.1,0.7,0.1c0.2,0,0.3,0,0.4,0
	c0.1,0,0.2,0,0.3-0.1l0.3,1.5c-0.1,0-0.3,0.1-0.5,0.1c-0.2,0.1-0.4,0.1-0.8,0.1c-0.5,0-0.9-0.1-1.4-0.3c-0.4-0.2-0.8-0.5-1.1-0.9
	c-0.3-0.4-0.4-0.9-0.4-1.5v-6.6h-1.6V122h1.6v-2.5h1.6v2.5H101.7z"/>
<path d="M104.2,132.7V122h1.6v10.6H104.2z M105,120.3c-0.3,0-0.6-0.1-0.8-0.3c-0.2-0.2-0.3-0.5-0.3-0.8c0-0.3,0.1-0.6,0.3-0.8
	c0.2-0.2,0.5-0.3,0.8-0.3c0.3,0,0.6,0.1,0.8,0.3c0.2,0.2,0.4,0.5,0.4,0.8c0,0.3-0.1,0.6-0.4,0.8C105.6,120.2,105.3,120.3,105,120.3z
	"/>
<path d="M117.5,122l-3.9,10.6h-1.6l-3.9-10.6h1.8l2.9,8.5h0.1l2.9-8.5H117.5z"/>
<path d="M124.1,132.9c-1,0-1.9-0.2-2.7-0.7c-0.7-0.5-1.3-1.1-1.7-1.9c-0.4-0.8-0.6-1.8-0.6-2.9c0-1.1,0.2-2.1,0.6-2.9
	c0.4-0.8,1-1.5,1.7-1.9c0.7-0.5,1.6-0.7,2.5-0.7c0.6,0,1.1,0.1,1.6,0.3c0.5,0.2,1,0.5,1.5,0.9c0.4,0.4,0.8,1,1.1,1.6
	c0.3,0.7,0.4,1.5,0.4,2.5v0.7h-7.7c0,1.1,0.3,2,1,2.6c0.6,0.6,1.4,0.9,2.4,0.9c0.6,0,1.2-0.1,1.6-0.4c0.5-0.3,0.8-0.7,1-1.3l1.6,0.5
	c-0.3,0.8-0.8,1.5-1.5,2C126.1,132.7,125.2,132.9,124.1,132.9z M120.8,126.5h6c0-0.9-0.3-1.7-0.8-2.3c-0.5-0.6-1.2-0.9-2.1-0.9
	c-0.6,0-1.2,0.1-1.6,0.4c-0.5,0.3-0.8,0.7-1.1,1.2C120.9,125.5,120.8,126,120.8,126.5z"/>
<path d="M140.5,132.9c-0.9,0-1.7-0.2-2.4-0.7c-0.7-0.5-1.2-1.1-1.6-1.9c-0.4-0.8-0.6-1.8-0.6-2.9c0-1.1,0.2-2.1,0.6-2.9
	c0.4-0.8,0.9-1.5,1.6-1.9c0.7-0.4,1.5-0.7,2.4-0.7c0.7,0,1.2,0.1,1.6,0.4c0.4,0.2,0.7,0.5,0.9,0.8c0.2,0.3,0.4,0.5,0.5,0.7h0.1v-5.3
	h1.6v14.2h-1.6v-1.6h-0.2c-0.1,0.2-0.3,0.4-0.5,0.7c-0.2,0.3-0.5,0.6-1,0.8C141.7,132.8,141.2,132.9,140.5,132.9z M140.7,131.4
	c1,0,1.7-0.4,2.3-1.1c0.5-0.8,0.8-1.7,0.8-2.9c0-1.2-0.3-2.2-0.8-2.9c-0.5-0.7-1.3-1.1-2.3-1.1c-0.7,0-1.3,0.2-1.7,0.5
	c-0.5,0.3-0.8,0.8-1,1.4c-0.2,0.6-0.3,1.3-0.3,2s0.1,1.4,0.4,2.1c0.2,0.6,0.6,1.1,1,1.5C139.4,131.3,140,131.4,140.7,131.4z"/>
<path d="M153,132.9c-1,0-1.9-0.2-2.7-0.7c-0.7-0.5-1.3-1.1-1.7-1.9c-0.4-0.8-0.6-1.8-0.6-2.9c0-1.1,0.2-2.1,0.6-2.9
	c0.4-0.8,1-1.5,1.7-1.9c0.7-0.5,1.6-0.7,2.5-0.7c0.6,0,1.1,0.1,1.6,0.3c0.5,0.2,1,0.5,1.5,0.9c0.4,0.4,0.8,1,1.1,1.6
	c0.3,0.7,0.4,1.5,0.4,2.5v0.7h-7.7c0,1.1,0.3,2,1,2.6c0.6,0.6,1.4,0.9,2.4,0.9c0.6,0,1.2-0.1,1.6-0.4c0.5-0.3,0.8-0.7,1-1.3l1.6,0.5
	c-0.3,0.8-0.8,1.5-1.5,2C155,132.7,154.1,132.9,153,132.9z M149.7,126.5h6c0-0.9-0.3-1.7-0.8-2.3c-0.5-0.6-1.2-0.9-2.1-0.9
	c-0.6,0-1.2,0.1-1.6,0.4c-0.5,0.3-0.8,0.7-1.1,1.2C149.9,125.5,149.7,126,149.7,126.5z"/>
<path d="M167,118.5v14.2h-1.6v-14.2H167z"/>
<path d="M171.5,118.5v1.3c0,0.6-0.2,1.2-0.5,1.9c-0.3,0.7-0.7,1.2-1.3,1.6l-0.9-0.7c0.3-0.4,0.5-0.8,0.8-1.3
	c0.2-0.5,0.3-0.9,0.3-1.5v-1.3H171.5z"/>
<path d="M186.1,125.6c0,1.5-0.3,2.8-0.8,3.9c-0.5,1.1-1.3,1.9-2.2,2.5c-0.9,0.6-2,0.9-3.2,0.9c-1.2,0-2.3-0.3-3.2-0.9
	c-0.9-0.6-1.7-1.4-2.2-2.5c-0.5-1.1-0.8-2.4-0.8-3.9c0-1.5,0.3-2.8,0.8-3.9c0.5-1.1,1.3-1.9,2.2-2.5c0.9-0.6,2-0.9,3.2-0.9
	c1.2,0,2.3,0.3,3.2,0.9c0.9,0.6,1.7,1.4,2.2,2.5C185.8,122.8,186.1,124.1,186.1,125.6z M184.4,125.6c0-1.2-0.2-2.3-0.6-3.1
	c-0.4-0.8-1-1.5-1.6-1.9c-0.7-0.4-1.5-0.7-2.3-0.7c-0.9,0-1.6,0.2-2.3,0.7c-0.7,0.4-1.2,1.1-1.6,1.9c-0.4,0.8-0.6,1.9-0.6,3.1
	c0,1.2,0.2,2.3,0.6,3.1c0.4,0.8,0.9,1.5,1.6,1.9c0.7,0.4,1.5,0.6,2.3,0.6c0.9,0,1.6-0.2,2.3-0.6c0.7-0.4,1.2-1.1,1.6-1.9
	C184.2,127.9,184.4,126.8,184.4,125.6z"/>
<path d="M200.2,118.5v14.2h-1.7l-7.7-11.1h-0.1v11.1h-1.7v-14.2h1.7l7.8,11.2h0.1v-11.2H200.2z"/>
<path d="M213.3,122.9c-0.3-0.9-0.8-1.7-1.5-2.2c-0.7-0.5-1.5-0.8-2.5-0.8c-0.8,0-1.6,0.2-2.3,0.7c-0.7,0.4-1.2,1.1-1.6,1.9
	c-0.4,0.8-0.6,1.9-0.6,3.1c0,1.2,0.2,2.3,0.6,3.1c0.4,0.8,1,1.5,1.7,1.9c0.7,0.4,1.5,0.6,2.4,0.6c0.8,0,1.5-0.2,2.1-0.5
	c0.6-0.3,1.1-0.8,1.5-1.4c0.4-0.6,0.5-1.4,0.6-2.2h-3.7v-1.5h5.4v1.5c0,1.2-0.3,2.2-0.8,3c-0.5,0.9-1.2,1.5-2.1,2
	c-0.9,0.5-1.9,0.7-3,0.7c-1.3,0-2.4-0.3-3.3-0.9c-0.9-0.6-1.7-1.4-2.2-2.5c-0.5-1.1-0.8-2.4-0.8-3.9c0-1.5,0.3-2.8,0.8-3.9
	c0.5-1.1,1.3-1.9,2.2-2.5c0.9-0.6,2-0.9,3.2-0.9c1,0,1.9,0.2,2.7,0.6c0.8,0.4,1.5,0.9,2,1.6c0.5,0.7,0.9,1.5,1.1,2.4H213.3z"/>
<path d="M10.7,158.7v-14.2h5.7c1.6,0,2.7,0.3,3.5,1c0.8,0.7,1.2,1.6,1.2,2.6c0,0.8-0.2,1.5-0.7,2c-0.5,0.5-1.1,0.9-1.8,1v0.1
	c0.5,0,1,0.2,1.5,0.5c0.5,0.3,0.9,0.7,1.1,1.2s0.4,1.1,0.4,1.8c0,0.8-0.2,1.4-0.6,2c-0.4,0.6-0.9,1.1-1.6,1.4
	c-0.7,0.3-1.6,0.5-2.7,0.5H10.7z M13.7,156.2h2.4c0.8,0,1.5-0.2,1.8-0.5c0.4-0.3,0.6-0.7,0.6-1.3c0-0.6-0.2-1.1-0.6-1.4
	c-0.4-0.4-1-0.6-1.7-0.6h-2.5V156.2z M13.7,150.4H16c0.6,0,1.1-0.2,1.5-0.5c0.4-0.3,0.6-0.8,0.6-1.3c0-0.5-0.2-0.9-0.5-1.2
	c-0.4-0.3-0.9-0.5-1.5-0.5h-2.3V150.4z"/>
<path d="M26.6,158.9c-1,0-1.9-0.3-2.5-0.8c-0.7-0.5-1-1.3-1-2.4c0-0.8,0.2-1.4,0.5-1.9c0.4-0.5,0.9-0.8,1.5-1c0.6-0.2,1.3-0.3,2-0.4
	c0.9-0.1,1.6-0.2,2-0.3c0.4-0.1,0.6-0.3,0.6-0.7v0c0-0.4-0.1-0.8-0.4-1c-0.3-0.3-0.7-0.4-1.2-0.4c-0.5,0-1,0.1-1.3,0.4
	c-0.3,0.2-0.5,0.5-0.6,0.9l-2.7-0.2c0.2-1,0.7-1.7,1.5-2.3c0.8-0.6,1.8-0.9,3.1-0.9c0.8,0,1.5,0.1,2.2,0.4c0.7,0.3,1.3,0.6,1.7,1.2
	c0.4,0.5,0.6,1.2,0.6,2.1v7.2h-2.8v-1.5h-0.1c-0.3,0.5-0.6,0.9-1.1,1.2C28,158.7,27.4,158.9,26.6,158.9z M27.5,156.8
	c0.6,0,1.2-0.2,1.6-0.6c0.4-0.4,0.6-0.8,0.6-1.4v-1.1c-0.1,0.1-0.3,0.2-0.5,0.2c-0.2,0.1-0.5,0.1-0.8,0.1c-0.3,0-0.5,0.1-0.7,0.1
	c-0.5,0.1-1,0.2-1.3,0.5c-0.3,0.2-0.5,0.5-0.5,0.9c0,0.4,0.1,0.7,0.4,0.9C26.6,156.7,27,156.8,27.5,156.8z"/>
<path d="M36.6,162.8c-0.4,0-0.8,0-1.1-0.1c-0.3-0.1-0.5-0.1-0.7-0.2l0.7-2.3c0.5,0.2,0.9,0.2,1.3,0.1c0.4-0.1,0.6-0.3,0.9-0.8
	l0.2-0.5L34,148h3.1l2.2,7.8h0.1l2.2-7.8h3.1l-4.1,11.9c-0.3,0.9-0.8,1.6-1.4,2.1C38.6,162.5,37.7,162.8,36.6,162.8z"/>
<path d="M55.1,151.1l-2.7,0.2c-0.1-0.3-0.3-0.6-0.6-0.9c-0.3-0.3-0.7-0.4-1.2-0.4c-0.5,0-0.8,0.1-1.2,0.3c-0.3,0.2-0.5,0.5-0.5,0.8
	c0,0.3,0.1,0.5,0.3,0.6c0.2,0.2,0.6,0.3,1.1,0.4l1.9,0.4c2.1,0.4,3.1,1.4,3.1,2.9c0,0.7-0.2,1.3-0.6,1.8c-0.4,0.5-1,0.9-1.7,1.2
	c-0.7,0.3-1.5,0.4-2.4,0.4c-1.4,0-2.5-0.3-3.4-0.9c-0.8-0.6-1.3-1.4-1.5-2.4l2.9-0.1c0.1,0.4,0.3,0.8,0.6,1c0.3,0.2,0.8,0.3,1.3,0.3
	c0.5,0,0.9-0.1,1.3-0.3c0.3-0.2,0.5-0.5,0.5-0.8c0-0.5-0.5-0.9-1.4-1.1l-1.9-0.4c-2.1-0.4-3.1-1.4-3.1-3c0-1,0.4-1.8,1.2-2.4
	c0.8-0.6,1.9-0.9,3.3-0.9c1.3,0,2.4,0.3,3.2,0.9C54.6,149.3,55,150.1,55.1,151.1z"/>
<path d="M64.8,144.5v14.2h-3v-14.2H64.8z"/>
<path d="M67.3,158.7V148H70v1.9h0.1c0.2-0.6,0.6-1.1,1.1-1.5c0.5-0.4,1.2-0.5,1.9-0.5c0.7,0,1.3,0.2,1.9,0.5c0.5,0.4,0.9,0.9,1,1.5
	h0.1c0.2-0.6,0.6-1.1,1.2-1.5c0.6-0.4,1.3-0.6,2-0.6c1,0,1.8,0.3,2.4,1c0.6,0.6,0.9,1.5,0.9,2.7v7.1h-2.9v-6.6c0-0.6-0.2-1-0.5-1.3
	c-0.3-0.3-0.7-0.5-1.2-0.5c-0.5,0-1,0.2-1.3,0.5c-0.3,0.3-0.4,0.8-0.4,1.3v6.5h-2.9v-6.6c0-0.5-0.2-0.9-0.5-1.3
	c-0.3-0.3-0.7-0.5-1.2-0.5c-0.5,0-0.9,0.2-1.2,0.5c-0.3,0.4-0.5,0.8-0.5,1.4v6.4H67.3z"/>
<path d="M85,162.7V148h2.9v1.8H88c0.1-0.3,0.3-0.6,0.6-0.9c0.3-0.3,0.6-0.5,1-0.7c0.4-0.2,0.9-0.3,1.5-0.3c0.8,0,1.5,0.2,2.1,0.6
	c0.7,0.4,1.2,1,1.6,1.8c0.4,0.8,0.6,1.8,0.6,3c0,1.2-0.2,2.2-0.6,3c-0.4,0.8-0.9,1.4-1.5,1.8c-0.6,0.4-1.4,0.6-2.2,0.6
	c-0.6,0-1.1-0.1-1.5-0.3c-0.4-0.2-0.7-0.4-1-0.7c-0.3-0.3-0.4-0.6-0.6-0.9H88v5.7H85z M87.9,153.4c0,0.9,0.2,1.7,0.6,2.3
	c0.4,0.6,0.9,0.9,1.6,0.9c0.7,0,1.3-0.3,1.7-0.9c0.4-0.6,0.6-1.3,0.6-2.3c0-0.9-0.2-1.7-0.6-2.3c-0.4-0.6-0.9-0.9-1.7-0.9
	c-0.7,0-1.3,0.3-1.6,0.9C88.1,151.7,87.9,152.4,87.9,153.4z"/>
<path d="M100.4,158.9c-1,0-1.9-0.3-2.5-0.8c-0.7-0.5-1-1.3-1-2.4c0-0.8,0.2-1.4,0.5-1.9c0.4-0.5,0.9-0.8,1.5-1
	c0.6-0.2,1.3-0.3,2-0.4c0.9-0.1,1.6-0.2,2-0.3c0.4-0.1,0.6-0.3,0.6-0.7v0c0-0.4-0.1-0.8-0.4-1c-0.3-0.3-0.7-0.4-1.2-0.4
	c-0.5,0-1,0.1-1.3,0.4c-0.3,0.2-0.5,0.5-0.6,0.9l-2.7-0.2c0.2-1,0.7-1.7,1.5-2.3c0.8-0.6,1.8-0.9,3.1-0.9c0.8,0,1.5,0.1,2.2,0.4
	c0.7,0.3,1.3,0.6,1.7,1.2c0.4,0.5,0.6,1.2,0.6,2.1v7.2h-2.8v-1.5h-0.1c-0.3,0.5-0.6,0.9-1.1,1.2
	C101.8,158.7,101.2,158.9,100.4,158.9z M101.2,156.8c0.6,0,1.2-0.2,1.6-0.6c0.4-0.4,0.6-0.8,0.6-1.4v-1.1c-0.1,0.1-0.3,0.2-0.5,0.2
	c-0.2,0.1-0.5,0.1-0.8,0.1c-0.3,0-0.5,0.1-0.7,0.1c-0.5,0.1-1,0.2-1.3,0.5c-0.3,0.2-0.5,0.5-0.5,0.9c0,0.4,0.1,0.7,0.4,0.9
	C100.4,156.7,100.8,156.8,101.2,156.8z"/>
<path d="M113.5,158.9c-1.1,0-2-0.2-2.8-0.7c-0.8-0.5-1.4-1.1-1.8-1.9c-0.4-0.8-0.6-1.8-0.6-2.9c0-1.1,0.2-2.1,0.6-2.9
	c0.4-0.8,1-1.5,1.8-1.9c0.8-0.5,1.7-0.7,2.8-0.7c0.9,0,1.7,0.2,2.4,0.5c0.7,0.3,1.3,0.8,1.7,1.4c0.4,0.6,0.6,1.3,0.7,2.1h-2.8
	c-0.1-0.5-0.3-0.9-0.6-1.3c-0.3-0.3-0.8-0.5-1.3-0.5c-0.7,0-1.2,0.3-1.6,0.8c-0.4,0.5-0.6,1.3-0.6,2.3c0,1,0.2,1.8,0.6,2.4
	c0.4,0.6,1,0.8,1.7,0.8c0.5,0,0.9-0.2,1.3-0.5c0.3-0.3,0.6-0.7,0.7-1.3h2.8c0,0.8-0.3,1.5-0.7,2.1c-0.4,0.6-0.9,1.1-1.6,1.4
	C115.2,158.7,114.4,158.9,113.5,158.9z"/>
<path d="M125.8,148v2.2h-2v5.1c0,0.4,0.1,0.7,0.3,0.8c0.2,0.1,0.4,0.2,0.7,0.2c0.1,0,0.3,0,0.4,0c0.1,0,0.2,0,0.3-0.1l0.5,2.2
	c-0.1,0-0.3,0.1-0.6,0.1c-0.3,0.1-0.6,0.1-1,0.1c-1.1,0-2-0.2-2.6-0.7c-0.6-0.5-1-1.3-1-2.3v-5.5h-1.4V148h1.4v-2.5h3v2.5H125.8z"/>
<g>
	<rect x="0" class="st5" width="110.1" height="107.9"/>
	<path class="st6" d="M84.1,66.1V49.2H71.7l18.6-18.6L78.3,18.7L59.7,37.4V24.8H42.8v12.4L24.3,18.7L12.3,30.6l18.6,18.6H18.3v16.9
		h12.6L12.3,84.7l11.9,11.9l18.5-18.5v12.4h16.9V78l18.7,18.7l11.9-11.9L71.7,66.1H84.1z"/>
	<path d="M18.3,16.3c-1.1,0-2.2,0.2-3.2,0.6c-1,0.4-1.9,1-2.7,1.8c-0.8,0.8-1.4,1.7-1.8,2.7c-0.4,1-0.6,2.1-0.6,3.2
		c0,1.1,0.2,2.2,0.6,3.2c0.4,1,1,2,1.8,2.7c0.8,0.8,1.7,1.4,2.7,1.8s2.1,0.6,3.2,0.6c1.1,0,2.2-0.2,3.2-0.6c1-0.4,1.9-1,2.7-1.8
		c0.8-0.8,1.4-1.7,1.8-2.7c0.4-1,0.6-2.1,0.6-3.2c0-1.1-0.2-2.2-0.6-3.2c-0.4-1-1-1.9-1.8-2.7c-0.8-0.8-1.7-1.4-2.7-1.8
		C20.5,16.5,19.4,16.3,18.3,16.3z"/>
	<path d="M18.3,49.3c-1.1,0-2.2,0.2-3.2,0.6c-1,0.4-1.9,1-2.7,1.8c-0.8,0.8-1.4,1.7-1.8,2.7c-0.4,1-0.6,2.1-0.6,3.2
		c0,1.1,0.2,2.2,0.6,3.2c0.4,1,1,1.9,1.8,2.7s1.7,1.4,2.7,1.8c1,0.4,2.1,0.6,3.2,0.6c2.2,0,4.4-0.9,5.9-2.5c1.6-1.6,2.5-3.7,2.5-5.9
		c0-2.2-0.9-4.4-2.5-5.9C22.7,50.2,20.5,49.3,18.3,49.3z"/>
	<path d="M18.3,82.3c-1.1,0-2.2,0.2-3.2,0.6s-1.9,1-2.7,1.8c-0.8,0.8-1.4,1.7-1.8,2.7c-0.4,1-0.6,2.1-0.6,3.2c0,1.1,0.2,2.2,0.6,3.2
		c0.4,1,1,1.9,1.8,2.7c0.8,0.8,1.7,1.4,2.7,1.8c1,0.4,2.1,0.6,3.2,0.6c2.2,0,4.4-0.9,5.9-2.5c1.6-1.6,2.5-3.7,2.5-5.9
		c0-1.1-0.2-2.2-0.6-3.2c-0.4-1-1-2-1.8-2.7c-0.8-0.8-1.7-1.4-2.7-1.8C20.5,82.5,19.4,82.3,18.3,82.3z"/>
	<path d="M51.3,33.1c4.6,0,8.4-3.8,8.4-8.4c0-4.6-3.8-8.4-8.4-8.4s-8.4,3.8-8.4,8.4C42.9,29.3,46.7,33.1,51.3,33.1z"/>
	<path d="M51.3,66.1c4.6,0,8.4-3.8,8.4-8.4s-3.8-8.4-8.4-8.4s-8.4,3.8-8.4,8.4S46.7,66.1,51.3,66.1z"/>
	<path d="M51.3,99.1c4.6,0,8.4-3.8,8.4-8.4c0-4.6-3.8-8.4-8.4-8.4s-8.4,3.8-8.4,8.4C42.9,95.3,46.7,99.1,51.3,99.1z"/>
	<path d="M84.3,66.1c4.6,0,8.4-3.8,8.4-8.4s-3.8-8.4-8.4-8.4c-4.6,0-8.4,3.8-8.4,8.4S79.7,66.1,84.3,66.1z"/>
	<path d="M84.3,99.1c4.6,0,8.4-3.8,8.4-8.4c0-4.6-3.8-8.4-8.4-8.4c-4.6,0-8.4,3.8-8.4,8.4C75.9,95.3,79.7,99.1,84.3,99.1z"/>
	<path d="M84.3,33.1c4.6,0,8.4-3.8,8.4-8.4c0-4.6-3.8-8.4-8.4-8.4c-4.6,0-8.4,3.8-8.4,8.4C75.9,29.3,79.7,33.1,84.3,33.1z"/>
</g>
</svg>
